<?xml version="1.0" encoding="utf-8" standalone="no"?>
<!DOCTYPE svg PUBLIC "-//W3C//DTD SVG 1.1//EN"
  "http://www.w3.org/Graphics/SVG/1.1/DTD/svg11.dtd">
<svg height="561.5pt" version="1.1" viewBox="0 0 575.9 561.5" width="575.9pt" xmlns="http://www.w3.org/2000/svg" xmlns:xlink="http://www.w3.org/1999/xlink">
 <metadata>
  <rdf:RDF xmlns:cc="http://creativecommons.org/ns#" xmlns:dc="http://purl.org/dc/elements/1.1/" xmlns:rdf="http://www.w3.org/1999/02/22-rdf-syntax-ns#">
   <cc:Work>
    <dc:type rdf:resource="http://purl.org/dc/dcmitype/StillImage"/>
    <dc:date>2021-10-05T15:34:49.790667</dc:date>
    <dc:format>image/svg+xml</dc:format>
    <dc:creator>
     <cc:Agent>
      <dc:title>Matplotlib v3.4.2, https://matplotlib.org/</dc:title>
     </cc:Agent>
    </dc:creator>
   </cc:Work>
  </rdf:RDF>
 </metadata>
 <defs>
  <style type="text/css">*{stroke-linecap:butt;stroke-linejoin:round;}</style>
 </defs>
 <g id="figure_1">
  <g id="patch_1">
   <path d="M 0 561.5 
L 575.9 561.5 
L 575.9 0 
L 0 0 
z
" style="fill:#ffffff;"/>
  </g>
  <g id="axes_1">
   <g id="patch_2">
    <path d="M 10.7 550.8 
L 568.7 550.8 
L 568.7 7.2 
L 10.7 7.2 
z
" style="fill:#ffffff;"/>
   </g>
   <g id="PatchCollection_1">
    <path clip-path="url(#p1f7da98a22)" d="M 21.86 279 
L 39.716 279 
L 57.572 235.512 
L 57.572 279 
L 75.428 279 
L 75.428 235.512 
L 93.284 279 
L 111.14 279 
L 84.356 322.488 
L 48.644 322.488 
z
"/>
    <path clip-path="url(#p1f7da98a22)" d="M 133.46 264.504 
L 163.22 264.504 
L 163.22 235.512 
L 192.98 235.512 
L 192.98 264.504 
L 222.74 264.504 
L 222.74 293.496 
L 192.98 293.496 
L 192.98 322.488 
L 163.22 322.488 
L 163.22 293.496 
L 133.46 293.496 
z
"/>
    <path clip-path="url(#p1f7da98a22)" d="M 245.06 279 
L 262.916 279 
L 280.772 235.512 
L 280.772 279 
L 298.628 279 
L 298.628 235.512 
L 316.484 279 
L 334.34 279 
L 307.556 322.488 
L 271.844 322.488 
z
"/>
    <path clip-path="url(#p1f7da98a22)" d="M 356.66 264.504 
L 386.42 264.504 
L 386.42 235.512 
L 416.18 235.512 
L 416.18 264.504 
L 445.94 264.504 
L 445.94 293.496 
L 416.18 293.496 
L 416.18 322.488 
L 386.42 322.488 
L 386.42 293.496 
L 356.66 293.496 
z
"/>
    <path clip-path="url(#p1f7da98a22)" d="M 468.26 279 
L 486.116 279 
L 503.972 235.512 
L 503.972 279 
L 521.828 279 
L 521.828 235.512 
L 539.684 279 
L 557.54 279 
L 530.756 322.488 
L 495.044 322.488 
z
"/>
   </g>
   <g id="patch_3">
    <path d="M 10.7 550.8 
L 10.7 7.2 
" style="fill:none;stroke:#000000;stroke-linecap:square;stroke-linejoin:miter;stroke-width:2;"/>
   </g>
   <g id="patch_4">
    <path d="M 568.7 550.8 
L 568.7 7.2 
" style="fill:none;stroke:#000000;stroke-linecap:square;stroke-linejoin:miter;stroke-width:2;"/>
   </g>
   <g id="patch_5">
    <path d="M 10.7 550.8 
L 568.7 550.8 
" style="fill:none;stroke:#000000;stroke-linecap:square;stroke-linejoin:miter;stroke-width:2;"/>
   </g>
   <g id="patch_6">
    <path d="M 10.7 7.2 
L 568.7 7.2 
" style="fill:none;stroke:#000000;stroke-linecap:square;stroke-linejoin:miter;stroke-width:2;"/>
   </g>
  </g>
 </g>
 <defs>
  <clipPath id="p1f7da98a22">
   <rect height="543.6" width="558" x="10.7" y="7.2"/>
  </clipPath>
 </defs>
</svg>
